<?xml version="1.0" standalone="no"?>
<!DOCTYPE svg PUBLIC "-//W3C//DTD SVG 20010904//EN"
 "http://www.w3.org/TR/2001/REC-SVG-20010904/DTD/svg10.dtd">
<svg version="1.0" xmlns="http://www.w3.org/2000/svg"
 width="256.000000pt" height="256.000000pt" viewBox="0 0 256.000000 256.000000"
 preserveAspectRatio="xMidYMid meet">
<metadata>
Created by potrace 1.16, written by Peter Selinger 2001-2019
</metadata>
<g transform="translate(0.000000,256.000000) scale(0.100000,-0.100000)"
fill="#000000" stroke="none">
<path d="M0 1280 l0 -1280 1280 0 1280 0 0 1280 0 1280 -165 0 c-109 0 -165
-4 -165 -11 0 -5 4 -7 10 -4 5 3 21 -12 35 -35 14 -22 29 -40 33 -40 4 0 8
-14 9 -31 1 -17 8 -38 14 -45 7 -8 9 -17 6 -20 -3 -3 3 -14 14 -25 20 -20 16
-49 -7 -49 -16 0 -18 -9 -5 -29 5 -7 14 -10 21 -6 9 6 9 3 1 -13 -8 -16 -8
-24 2 -34 7 -7 14 -17 14 -23 1 -5 10 -12 20 -16 10 -4 12 -8 5 -8 -11 -1 -9
-10 7 -36 19 -32 19 -35 3 -44 -14 -9 -12 -10 12 -11 23 0 27 -3 19 -11 -9 -9
-6 -16 10 -30 12 -10 16 -18 10 -19 -7 0 -13 4 -13 10 0 5 -7 7 -15 4 -8 -3
-22 1 -30 10 -9 9 -21 16 -27 16 -6 0 1 -11 16 -25 28 -26 34 -45 14 -45 -9 0
-8 -4 2 -10 13 -8 12 -10 -3 -10 -10 0 -28 -9 -39 -20 l-22 -20 31 6 c29 6 30
4 26 -20 -3 -14 -1 -32 5 -39 9 -10 1 -13 -36 -15 l-47 -2 30 25 30 25 -28
-10 c-36 -13 -37 -13 -37 5 0 10 -10 15 -29 15 -21 0 -28 -5 -27 -17 0 -10 5
-21 10 -24 13 -10 -2 -61 -16 -53 -6 4 -9 1 -6 -7 7 -21 48 -24 48 -4 0 11 5
15 15 11 8 -3 15 -1 15 4 0 6 10 10 23 9 12 0 16 -3 8 -6 -10 -4 -6 -12 14
-29 21 -18 24 -24 12 -24 -22 0 -22 -16 1 -29 16 -10 16 -10 0 -11 -22 0 -23
-14 -2 -34 9 -9 17 -24 19 -34 1 -10 9 -16 19 -14 14 3 16 -3 13 -27 -3 -16
-2 -32 1 -35 3 -3 7 -17 8 -31 2 -17 -2 -25 -12 -25 -12 0 -14 -7 -9 -32 4
-18 14 -37 21 -41 20 -11 8 -26 -15 -20 -20 5 -38 -12 -22 -21 6 -4 5 -20 -1
-42 -7 -28 -7 -39 4 -45 7 -5 10 -9 6 -9 -4 0 -1 -20 7 -45 7 -26 9 -47 4 -51
-5 -3 -7 -9 -5 -13 3 -4 -9 -13 -25 -20 -17 -7 -28 -18 -26 -25 3 -6 -15 -20
-39 -31 -24 -11 -44 -26 -44 -33 0 -8 -15 -28 -33 -46 -19 -17 -39 -46 -46
-63 -9 -22 -20 -33 -33 -33 -14 0 -18 -5 -14 -15 3 -9 0 -15 -8 -15 -7 0 -18
-6 -25 -13 -14 -18 5 -37 38 -37 31 0 91 21 91 32 0 4 11 8 25 8 18 0 23 4 19
15 -6 16 20 21 50 9 20 -8 21 -44 2 -44 -8 0 -18 -9 -21 -20 -3 -11 -11 -20
-16 -20 -5 0 -7 -11 -3 -25 10 -40 -41 -82 -91 -76 -11 2 -17 0 -14 -3 4 -4
26 -9 50 -12 24 -3 51 -7 60 -9 20 -7 65 35 49 45 -19 11 -1 17 74 25 l69 8
-5 -32 c-3 -18 0 -31 6 -31 6 0 3 -7 -6 -14 -10 -7 -18 -26 -18 -43 0 -16 -3
-33 -7 -37 -4 -3 -8 -27 -9 -52 -1 -26 -6 -49 -11 -53 -15 -9 -25 -61 -12 -61
13 0 1 -62 -14 -71 -5 -4 -7 -14 -4 -23 4 -9 2 -16 -4 -16 -5 0 -19 -9 -31
-20 -12 -11 -30 -20 -40 -20 -10 0 -18 -4 -18 -10 0 -5 -7 -7 -15 -4 -8 4 -15
1 -15 -4 0 -6 8 -12 18 -15 9 -2 -11 -4 -45 -5 -34 0 -68 -4 -74 -8 -7 -4 -9
-3 -5 4 3 6 1 14 -5 18 -6 4 -16 -1 -21 -10 -5 -9 -20 -16 -34 -16 -14 0 -32
-7 -40 -15 -9 -8 -27 -15 -42 -15 l-27 0 25 -21 c25 -20 25 -20 2 -14 -15 5
-30 1 -42 -10 -13 -12 -26 -14 -42 -9 -52 17 -63 13 -68 -25 -5 -32 -8 -36
-37 -37 -26 -1 -33 2 -33 17 0 12 -7 19 -19 19 -10 0 -30 11 -45 25 -30 28
-46 31 -64 13 -10 -10 -14 -8 -18 10 -4 12 -10 22 -15 22 -16 0 -9 46 10 68
10 12 30 22 43 22 37 0 55 25 34 45 -19 19 -19 25 -5 45 8 11 12 12 16 3 7
-18 23 -16 23 3 0 10 6 14 15 10 8 -3 15 -2 15 3 0 5 12 12 28 16 15 4 21 10
15 12 -7 3 -13 18 -13 34 0 16 -4 29 -10 29 -18 0 -10 29 11 41 12 6 19 7 15
1 -5 -8 14 -22 30 -22 9 0 4 28 -6 32 -14 5 10 78 27 78 7 0 13 5 13 10 0 6
16 10 35 10 19 0 35 -4 35 -10 0 -12 84 -1 125 16 l30 13 -27 1 c-16 0 -28 5
-28 10 0 6 -9 10 -21 10 -24 0 -49 22 -49 44 0 9 -7 16 -15 16 -8 0 -15 -7
-15 -16 0 -16 -8 -16 -60 -3 -8 2 -14 -1 -13 -8 1 -6 -11 -14 -27 -18 -25 -5
-30 -12 -30 -35 0 -28 -15 -40 -51 -40 -11 0 -18 -4 -15 -9 3 -5 -1 -12 -10
-15 -8 -3 -14 -14 -12 -23 5 -23 -48 -58 -83 -55 -20 1 -28 -4 -32 -19 -3 -11
-15 -23 -26 -26 -12 -3 -21 -9 -21 -14 0 -5 -7 -6 -15 -3 -8 4 -15 1 -15 -5 0
-6 -4 -11 -10 -11 -20 0 -10 21 15 30 16 6 23 14 19 25 -8 19 15 48 33 41 7
-3 13 1 13 9 0 8 7 18 15 22 21 12 55 82 48 100 -5 13 -1 12 23 -3 28 -17 28
-17 -5 19 -31 33 -72 53 -56 27 3 -5 1 -10 -4 -10 -6 0 -11 -7 -11 -17 0 -9
-7 -23 -15 -32 -8 -9 -23 -26 -35 -38 -11 -13 -20 -29 -20 -35 0 -12 -70 -68
-84 -68 -3 0 -15 -9 -26 -20 -29 -29 -100 -32 -127 -5 -17 17 -37 10 -29 -11
8 -21 -12 -17 -24 5 -17 33 -12 61 11 61 15 0 19 5 15 15 -4 11 1 15 19 15 14
0 25 2 25 5 0 12 -42 45 -50 40 -6 -4 -10 -1 -10 5 0 7 9 14 20 17 11 3 20 9
20 13 0 5 10 6 22 2 17 -4 20 -2 15 11 -4 10 -2 17 3 17 5 0 14 9 20 20 9 17
8 20 -10 20 -11 0 -19 -3 -18 -7 2 -5 -1 -10 -7 -13 -6 -3 -11 13 -13 38 -3
33 0 42 13 42 9 0 15 6 12 13 -5 13 -11 13 -39 2 -23 -9 -24 17 -3 35 8 7 12
16 9 21 -3 5 -1 9 4 9 14 0 30 48 36 108 5 49 4 52 -17 52 -34 0 -51 15 -44
39 4 16 1 21 -15 21 -11 0 -18 5 -15 13 2 6 13 11 24 9 14 -2 22 4 26 18 3 11
1 18 -4 14 -5 -3 -9 -1 -9 4 0 11 37 25 58 23 6 -1 12 3 12 9 0 7 -13 10 -30
8 -19 -2 -34 3 -40 12 -5 8 -12 12 -15 8 -3 -3 -21 -2 -40 2 -21 5 -38 3 -44
-3 -8 -8 -11 -5 -11 11 0 12 -4 31 -10 42 -5 11 -15 29 -20 40 -8 15 -6 24 9
39 10 10 25 21 32 23 8 3 13 17 11 36 -1 18 2 32 8 32 17 0 -1 28 -23 35 -12
4 -42 8 -66 9 -37 1 -47 -3 -64 -26 -12 -16 -25 -28 -30 -28 -5 0 -20 -11 -33
-25 -24 -27 -54 -33 -54 -12 0 25 19 40 56 44 41 4 57 13 37 20 -7 3 -13 11
-13 19 0 9 -5 12 -10 9 -6 -3 -10 -1 -10 5 0 7 9 14 20 17 11 3 20 14 20 24 0
10 9 24 19 31 16 9 17 15 9 26 -9 10 -9 15 0 21 9 5 42 82 42 97 0 2 -6 4 -14
4 -19 0 -31 69 -16 84 9 8 11 6 6 -10 -4 -12 -3 -29 0 -39 7 -17 8 -17 20 0 7
9 10 23 8 30 -3 7 -1 16 5 20 6 3 11 2 11 -4 0 -21 33 3 46 33 10 25 14 27 15
11 1 -11 3 -24 4 -30 2 -5 3 -15 4 -22 1 -7 8 -10 17 -6 13 5 15 2 9 -18 -7
-22 -6 -23 9 -10 11 10 15 23 12 37 -5 18 -3 22 9 18 8 -4 15 -13 15 -21 0
-11 7 -14 22 -10 17 5 33 -6 75 -48 29 -30 60 -66 69 -80 9 -15 23 -24 30 -21
14 5 44 -34 44 -58 0 -8 12 -27 27 -42 l26 -26 19 23 c10 13 16 17 13 8 -6
-17 9 -20 117 -23 31 0 56 -5 55 -10 -1 -5 4 -11 12 -14 10 -3 12 0 8 12 -5
14 -3 16 12 11 16 -5 18 -2 14 14 -4 14 1 23 13 27 11 4 33 22 51 40 17 17 45
35 63 39 25 5 31 11 27 26 -5 18 3 23 30 20 8 -1 10 5 6 15 -5 13 -2 15 15 10
27 -9 36 8 15 29 -12 12 -16 31 -14 61 2 31 -3 52 -18 73 -12 16 -21 34 -21
39 0 12 -38 27 -57 24 -6 -2 -14 2 -18 8 -3 5 -2 10 4 10 6 0 1 16 -10 35 -12
19 -23 35 -26 35 -2 0 -2 -3 0 -7 3 -5 -43 -8 -101 -9 -96 -1 -108 1 -128 21
-16 16 -19 26 -12 39 9 15 7 16 -10 7 -11 -6 -22 -7 -26 -4 -3 3 -6 1 -6 -5 0
-7 -5 -12 -11 -12 -5 0 -7 6 -3 13 6 10 4 10 -7 0 -21 -20 -53 -17 -44 5 5 13
4 14 -6 5 -10 -10 -9 -17 6 -33 18 -20 18 -24 4 -48 -20 -37 -49 -42 -49 -8 0
13 -4 36 -10 50 -12 31 -4 56 19 57 9 0 3 5 -12 11 -19 7 -25 13 -18 21 15 19
25 87 12 87 -6 0 -11 4 -11 10 0 5 5 9 11 7 7 -1 16 14 21 33 5 19 21 45 36
58 22 19 27 33 30 78 2 52 -2 60 -30 55 -13 -2 -9 16 7 29 8 7 15 17 15 23 0
7 -14 -4 -32 -23 -17 -19 -29 -27 -25 -17 4 10 2 17 -6 17 -7 1 -1 7 13 15 14
8 21 15 15 15 -5 0 -3 5 5 10 10 6 -266 10 -787 10 l-803 0 0 -1280z m1081
990 c6 -14 16 -34 22 -45 6 -11 9 -39 8 -62 -1 -31 4 -51 20 -73 25 -34 19
-52 -9 -27 -10 10 -22 14 -26 10 -4 -5 -7 -3 -6 2 5 25 -1 45 -15 45 -8 0 -15
-4 -15 -8 0 -5 -7 -9 -15 -9 -18 0 -31 39 -19 59 5 10 4 11 -7 1 -18 -18 -36
-16 -43 3 -4 12 -2 15 9 10 8 -3 15 -1 15 3 0 5 -4 11 -8 13 -5 2 -12 32 -16
68 -5 50 -3 61 6 52 14 -14 32 -16 23 -2 -3 6 3 10 14 10 12 0 21 6 21 13 0
12 20 -18 41 -63z"/>
</g>
</svg>
